<svg width="32" height="40" viewBox="0 0 32 40" fill="none" xmlns="http://www.w3.org/2000/svg">
<g clip-path="url(#clip0)">
<path d="M11.9999 8.00098C5.37269 8.00098 0 13.3737 0 20.001C0 26.6287 5.37269 32.001 11.9999 32.001C18.6279 32.001 24 26.6287 24 20.001C24 13.3741 18.6279 8.00155 11.9998 8.00155L11.9999 8.00098ZM17.503 25.3085C17.2881 25.661 16.8267 25.7728 16.4742 25.5564C13.6567 23.8354 10.1099 23.4456 5.93283 24.4C5.53032 24.4917 5.12909 24.2395 5.03738 23.8369C4.94524 23.4342 5.19644 23.0329 5.59996 22.9412C10.1711 21.8965 14.092 22.3466 17.2551 24.2796C17.6076 24.496 17.7194 24.956 17.503 25.3085ZM18.9718 22.0406C18.701 22.4813 18.1249 22.6203 17.685 22.3494C14.4594 20.3663 9.54257 19.7921 5.72735 20.9503C5.23255 21.0997 4.70995 20.8209 4.55978 20.3269C4.41075 19.8321 4.68975 19.3105 5.18369 19.16C9.54171 17.8377 14.9595 18.4782 18.6637 20.7545C19.1036 21.0253 19.2426 21.6014 18.9718 22.0408V22.0406ZM19.0979 18.6381C15.2304 16.3409 8.84945 16.1297 5.15689 17.2504C4.56394 17.4303 3.93688 17.0955 3.75719 16.5026C3.5775 15.9093 3.91195 15.2827 4.50533 15.1024C8.74413 13.8156 15.7906 14.0642 20.2434 16.7076C20.7779 17.0242 20.9527 17.713 20.636 18.2456C20.3208 18.779 19.6301 18.9548 19.0985 18.6381H19.0979Z" fill="#141313"/>
</g>
<defs>
<clipPath id="clip0">
<rect width="40" height="40" fill="white" transform="translate(-8 0.000976562)"/>
</clipPath>
</defs>
</svg>
