<svg width="80" height="80" viewBox="0 0 80 80" fill="none" xmlns="http://www.w3.org/2000/svg">
<path fill-rule="evenodd" clip-rule="evenodd" d="M39.9987 18.668C34.2079 18.668 33.4806 18.6933 31.2055 18.7969C28.9343 18.9009 27.3841 19.2604 26.0277 19.788C24.6245 20.3329 23.4343 21.0618 22.2485 22.248C21.0618 23.4338 20.3329 24.624 19.7863 26.0267C19.2574 27.3836 18.8974 28.9343 18.7951 31.2045C18.6934 33.4801 18.6667 34.2077 18.6667 40.0015C18.6667 45.7954 18.6925 46.5203 18.7956 48.7958C18.9 51.067 19.2596 52.6172 19.7867 53.9737C20.332 55.3768 21.0609 56.567 22.2472 57.7528C23.4325 58.9395 24.6227 59.6702 26.025 60.2151C27.3823 60.7426 28.933 61.1022 31.2037 61.2062C33.4793 61.3097 34.206 61.3351 39.9994 61.3351C45.7936 61.3351 46.5185 61.3097 48.7941 61.2062C51.0652 61.1022 52.6173 60.7426 53.9746 60.2151C55.3773 59.6702 56.5657 58.9395 57.7511 57.7528C58.9378 56.567 59.6667 55.3768 60.2133 53.9741C60.7378 52.6172 61.0978 51.0665 61.2045 48.7963C61.3067 46.5207 61.3334 45.7954 61.3334 40.0015C61.3334 34.2077 61.3067 33.4806 61.2045 31.205C61.0978 28.9339 60.7378 27.3836 60.2133 26.0272C59.6667 24.624 58.9378 23.4338 57.7511 22.248C56.5644 21.0613 55.3777 20.3324 53.9733 19.788C52.6133 19.2604 51.0621 18.9009 48.791 18.7969C46.5159 18.6933 45.7912 18.668 39.9987 18.668ZM39.291 22.5116C38.8596 22.5114 38.4598 22.5113 38.0882 22.5118V22.5065C34.1121 22.511 33.3495 22.5376 31.3815 22.6265C29.3014 22.7221 28.1721 23.0687 27.4201 23.3621C26.4245 23.7496 25.7134 24.2119 24.9667 24.9585C24.22 25.7052 23.7569 26.4163 23.3703 27.4119C23.0783 28.1639 22.7307 29.2928 22.6356 31.3728C22.5334 33.6217 22.5129 34.2937 22.5129 39.9907C22.5129 45.6876 22.5334 46.3632 22.6356 48.6121C22.7303 50.6921 23.0783 51.821 23.3703 52.5722C23.7578 53.5682 24.22 54.2775 24.9667 55.0242C25.7134 55.7709 26.4245 56.2331 27.4201 56.6198C28.1725 56.9118 29.3014 57.2593 31.3815 57.3553C33.6304 57.4575 34.3055 57.4798 40.002 57.4798C45.698 57.4798 46.3736 57.4575 48.6225 57.3553C50.7025 57.2602 51.8323 56.9135 52.5835 56.6202C53.5795 56.2335 54.2884 55.7713 55.035 55.0246C55.7817 54.2784 56.2448 53.5695 56.6315 52.5739C56.9235 51.8228 57.2711 50.6939 57.3662 48.6139C57.4684 46.365 57.4906 45.6894 57.4906 39.996C57.4906 34.3026 57.4684 33.6271 57.3662 31.3782C57.2715 29.2981 56.9235 28.1692 56.6315 27.4181C56.2439 26.4226 55.7817 25.7114 55.035 24.9648C54.2888 24.2181 53.579 23.7559 52.5835 23.3692C51.8314 23.0772 50.7025 22.7296 48.6225 22.6345C46.3732 22.5323 45.698 22.5118 40.002 22.5118L39.291 22.5116ZM48.8296 28.6133C48.8296 27.1995 49.9762 26.0541 51.3896 26.0541V26.0533C52.8029 26.0533 53.9496 27.1999 53.9496 28.6133C53.9496 30.0266 52.8029 31.1733 51.3896 31.1733C49.9762 31.1733 48.8296 30.0266 48.8296 28.6133ZM40.0017 29.0452C33.9516 29.0454 29.0464 33.9507 29.0464 40.0008C29.0464 46.0511 33.9518 50.9543 40.0021 50.9543C46.0524 50.9543 50.956 46.0511 50.956 40.0008C50.956 33.9505 46.0519 29.0452 40.0017 29.0452ZM40.002 32.8906C43.9291 32.8906 47.1131 36.0742 47.1131 40.0018C47.1131 43.929 43.9291 47.113 40.002 47.113C36.0744 47.113 32.8908 43.929 32.8908 40.0018C32.8908 36.0742 36.0744 32.8906 40.002 32.8906Z" fill="white"/>
</svg>
