<svg width="40" height="40" viewBox="0 0 40 40" fill="none" xmlns="http://www.w3.org/2000/svg">
<path fill-rule="evenodd" clip-rule="evenodd" d="M20.001 9.33398C17.1041 9.33398 16.7405 9.34665 15.6027 9.39843C14.4672 9.45043 13.6921 9.63021 13.0138 9.89399C12.3123 10.1664 11.7171 10.5309 11.1243 11.124C10.5309 11.7169 10.1665 12.312 9.89313 13.0134C9.62868 13.6918 9.44868 14.4671 9.39757 15.6023C9.34668 16.7401 9.33334 17.1038 9.33334 20.0008C9.33334 22.8977 9.34623 23.2601 9.39779 24.3979C9.45001 25.5335 9.62979 26.3086 9.89335 26.9868C10.166 27.6884 10.5305 28.2835 11.1236 28.8764C11.7163 29.4697 12.3114 29.8351 13.0125 30.1075C13.6912 30.3713 14.4665 30.5511 15.6019 30.6031C16.7396 30.6549 17.103 30.6675 19.9997 30.6675C22.8968 30.6675 23.2593 30.6549 24.3971 30.6031C25.5326 30.5511 26.3086 30.3713 26.9873 30.1075C27.6886 29.8351 28.2829 29.4697 28.8755 28.8764C29.4689 28.2835 29.8333 27.6884 30.1067 26.9871C30.3689 26.3086 30.5489 25.5333 30.6022 24.3981C30.6533 23.2604 30.6667 22.8977 30.6667 20.0008C30.6667 17.1038 30.6533 16.7403 30.6022 15.6025C30.5489 14.4669 30.3689 13.6918 30.1067 13.0136C29.8333 12.312 29.4689 11.7169 28.8755 11.124C28.2822 10.5307 27.6889 10.1662 26.9866 9.89399C26.3066 9.63021 25.5311 9.45043 24.3955 9.39843C23.2577 9.34665 22.8955 9.33398 19.9977 9.33398H20.001ZM19.6454 11.2558C19.4297 11.2557 19.2298 11.2556 19.044 11.2559V11.2533C17.056 11.2555 16.6747 11.2688 15.6907 11.3133C14.6507 11.361 14.086 11.5344 13.71 11.681C13.2122 11.8748 12.8566 12.1059 12.4833 12.4793C12.11 12.8526 11.8784 13.2082 11.6851 13.7059C11.5391 14.082 11.3653 14.6464 11.3177 15.6864C11.2666 16.8109 11.2564 17.1469 11.2564 19.9953C11.2564 22.8438 11.2666 23.1816 11.3177 24.3061C11.3651 25.3461 11.5391 25.9105 11.6851 26.2861C11.8788 26.7841 12.11 27.1388 12.4833 27.5121C12.8566 27.8854 13.2122 28.1165 13.71 28.3099C14.0862 28.4559 14.6507 28.6297 15.6907 28.6777C16.8151 28.7288 17.1527 28.7399 20.0009 28.7399C22.849 28.7399 23.1867 28.7288 24.3112 28.6777C25.3512 28.6301 25.9161 28.4568 26.2917 28.3101C26.7897 28.1168 27.1441 27.8857 27.5175 27.5123C27.8908 27.1392 28.1224 26.7848 28.3157 26.287C28.4617 25.9114 28.6355 25.347 28.683 24.3069C28.7341 23.1825 28.7452 22.8447 28.7452 19.998C28.7452 17.1513 28.7341 16.8135 28.683 15.6891C28.6357 14.6491 28.4617 14.0846 28.3157 13.7091C28.1219 13.2113 27.8908 12.8557 27.5175 12.4824C27.1443 12.109 26.7894 11.8779 26.2917 11.6846C25.9157 11.5386 25.3512 11.3648 24.3112 11.3173C23.1865 11.2661 22.849 11.2559 20.0009 11.2559L19.6454 11.2558ZM24.4148 14.3066C24.4148 13.5997 24.9882 13.027 25.6949 13.027V13.0266C26.4015 13.0266 26.9749 13.5999 26.9749 14.3066C26.9749 15.0133 26.4015 15.5866 25.6949 15.5866C24.9882 15.5866 24.4148 15.0133 24.4148 14.3066ZM20.0006 14.5227C16.9756 14.5228 14.523 16.9755 14.523 20.0005C14.523 23.0257 16.9757 25.4773 20.0008 25.4773C23.026 25.4773 25.4778 23.0257 25.4778 20.0005C25.4778 16.9754 23.0257 14.5227 20.0006 14.5227ZM20.001 16.4453C21.9646 16.4453 23.5566 18.0371 23.5566 20.0009C23.5566 21.9645 21.9646 23.5565 20.001 23.5565C18.0372 23.5565 16.4454 21.9645 16.4454 20.0009C16.4454 18.0371 18.0372 16.4453 20.001 16.4453Z" fill="#141313"/>
</svg>
