<svg width="40" height="40" viewBox="0 0 40 40" fill="none" xmlns="http://www.w3.org/2000/svg">
<path fill-rule="evenodd" clip-rule="evenodd" d="M10.6667 14.3138C10.6667 14.3138 18.7163 18.8785 20.2787 18.8785C21.9163 18.8785 29.8787 14.401 29.8787 14.401L29.8915 13.601C29.8915 12.7178 29.1747 12.001 28.2891 12.001H12.2683C11.3835 12.001 10.6667 12.7178 10.6667 13.601V14.3138ZM20.2787 21.0784C21.9915 21.0784 29.8787 16.8009 29.8787 16.8009L29.8915 26.4009C29.8915 27.2841 29.1747 28.0009 28.2891 28.0009H12.2683C11.3843 28.0009 10.6667 27.2841 10.6667 26.4009L10.6795 16.8009C10.6787 16.8009 18.7163 21.0784 20.2787 21.0784Z" fill="#141313"/>
</svg>
