<svg width="40" height="40" viewBox="0 0 40 40" fill="none" xmlns="http://www.w3.org/2000/svg">
<path fill-rule="evenodd" clip-rule="evenodd" d="M19.401 16.2572L19.443 16.9493L18.7435 16.8645C16.1974 16.5397 13.973 15.4381 12.0844 13.5879L11.1611 12.6699L10.9233 13.3478C10.4197 14.859 10.7414 16.455 11.7907 17.5283C12.3503 18.1215 12.2243 18.2063 11.2591 17.8532C10.9233 17.7402 10.6295 17.6554 10.6016 17.6978C10.5036 17.7967 10.8394 19.0819 11.1052 19.5903C11.4689 20.2965 12.2104 20.9886 13.0218 21.3981L13.7072 21.723L12.8958 21.7371C12.1124 21.7371 12.0844 21.7512 12.1684 22.0478C12.4482 22.9658 13.5534 23.9403 14.7844 24.364L15.6518 24.6606L14.8964 25.1126C13.7772 25.7623 12.4622 26.1295 11.1471 26.1577C10.5176 26.1718 10 26.2283 10 26.2707C10 26.4119 11.7067 27.2028 12.7 27.5136C15.6798 28.4316 19.2191 28.0361 21.8772 26.4684C23.7658 25.3527 25.6543 23.1353 26.5357 20.9886C27.0113 19.8446 27.487 17.7543 27.487 16.7515C27.487 16.1019 27.529 16.0171 28.3124 15.2403C28.774 14.7884 29.2077 14.2941 29.2916 14.1528C29.4315 13.8845 29.4175 13.8845 28.7041 14.1246C27.515 14.5483 27.3471 14.4918 27.9346 13.8563C28.3683 13.4043 28.8859 12.5852 28.8859 12.3451C28.8859 12.3027 28.6761 12.3733 28.4383 12.5004C28.1865 12.6416 27.6269 12.8535 27.2072 12.9806L26.4518 13.2207L25.7663 12.7546C25.3885 12.5004 24.8569 12.2179 24.5771 12.1332C23.8637 11.9355 22.7725 11.9637 22.129 12.1897C20.3803 12.8252 19.2751 14.4636 19.401 16.2572Z" fill="#141313"/>
</svg>
