<svg width="40" height="40" viewBox="0 0 40 40" fill="none" xmlns="http://www.w3.org/2000/svg">
<path fill-rule="evenodd" clip-rule="evenodd" d="M28.3347 13.1257C29.2526 13.3776 29.9755 14.1198 30.2209 15.0623C30.6667 16.7705 30.6667 20.3346 30.6667 20.3346C30.6667 20.3346 30.6667 23.8986 30.2209 25.607C29.9755 26.5495 29.2526 27.2916 28.3347 27.5437C26.6712 28.0013 20 28.0013 20 28.0013C20 28.0013 13.3289 28.0013 11.6652 27.5437C10.7473 27.2916 10.0244 26.5495 9.77904 25.607C9.33334 23.8986 9.33334 20.3346 9.33334 20.3346C9.33334 20.3346 9.33334 16.7705 9.77904 15.0623C10.0244 14.1198 10.7473 13.3776 11.6652 13.1257C13.3289 12.668 20 12.668 20 12.668C20 12.668 26.6712 12.668 28.3347 13.1257ZM18 24.0013V17.3346L23.3333 20.6681L18 24.0013Z" fill="#141313"/>
</svg>
